<svg xmlns="http://www.w3.org/2000/svg" viewBox="0 0 48 53.825">
	<defs xmlns="http://www.w3.org/2000/svg">
    <style>
      path{
        fill: #e94d65;
      }
    </style>
  </defs>
  <g id="branding" transform="translate(-50 -25)">
    <path id="Path_105" data-name="Path 105" d="M97.026,59.835H85.068V34.122a.908.908,0,0,0-.233-.646L77,25.3a.915.915,0,0,0-.658-.3H50.974a.99.99,0,0,0-.974.958v44.93a.981.981,0,0,0,.974.947H69.806v6.033a1,1,0,0,0,.986.958H97.026A.99.99,0,0,0,98,77.867V60.82A1.015,1.015,0,0,0,97.026,59.835ZM83.909,71.772,73.128,61.7H94.689ZM71.67,62.992l6.771,6.326L71.67,75.693Zm8.19,7.615,3.414,3.182a.934.934,0,0,0,1.273,0L88.1,70.478l6.649,6.483H73.124ZM89.5,69.19l6.634-6.2V75.646ZM77.262,28.273,82,33.155H77.262Zm-25.4,41.7V26.864H75.4v7.258a.914.914,0,0,0,.945.9H83.2V59.835H70.792a1.026,1.026,0,0,0-.986.986v9.15Z" transform="translate(0 0)"/>
    <path id="Path_106" data-name="Path 106" d="M108.007,138.931l.117-1.2a6.666,6.666,0,0,0,1.387-.58l.926.769a.641.641,0,0,0,.862-.04l1.578-1.578a.641.641,0,0,0,.04-.861l-.769-.929a6.787,6.787,0,0,0,.585-1.384l1.188-.116a.638.638,0,0,0,.576-.637v-2.237a.638.638,0,0,0-.577-.638l-1.209-.117a6.683,6.683,0,0,0-.582-1.387l.767-.926a.641.641,0,0,0-.037-.859l-1.558-1.578a.641.641,0,0,0-.865-.043l-.929.769a6.791,6.791,0,0,0-1.384-.585l-.117-1.2a.633.633,0,0,0-.638-.57h-2.237a.633.633,0,0,0-.638.57l-.117,1.205a6.672,6.672,0,0,0-1.387.581l-.926-.768a.641.641,0,0,0-.862.04L99.626,126.2a.641.641,0,0,0-.04.862l.769.929a6.793,6.793,0,0,0-.585,1.384l-1.2.117a.632.632,0,0,0-.57.638v2.237a.632.632,0,0,0,.569.638l1.205.117a6.672,6.672,0,0,0,.581,1.387l-.768.926a.641.641,0,0,0,.04.862l1.578,1.578a.641.641,0,0,0,.861.04l.929-.769a6.784,6.784,0,0,0,1.384.585l.117,1.2a.629.629,0,0,0,.638.567h2.237A.629.629,0,0,0,108.007,138.931Zm-1.116-1.781-.1,1.066h-1.073l-.1-1.066a.633.633,0,0,0-.5-.558,5.514,5.514,0,0,1-1.826-.768.641.641,0,0,0-.756.047l-.829.687-.753-.753.687-.829a.641.641,0,0,0,.04-.764,5.342,5.342,0,0,1-.766-1.818.629.629,0,0,0-.555-.5l-1.069-.1v-1.073l1.069-.1a.635.635,0,0,0,.56-.5,5.514,5.514,0,0,1,.769-1.826.641.641,0,0,0-.046-.756l-.687-.829.753-.753.829.687a.641.641,0,0,0,.764.04,5.342,5.342,0,0,1,1.818-.766.63.63,0,0,0,.5-.555l.1-1.069h1.073l.1,1.069a.635.635,0,0,0,.5.56,5.516,5.516,0,0,1,1.826.769.641.641,0,0,0,.756-.046l.826-.685.738.748-.689.832a.641.641,0,0,0-.04.764,5.342,5.342,0,0,1,.766,1.817.638.638,0,0,0,.562.5l1.076.1v1.074l-1.057.1a.639.639,0,0,0-.563.5,5.52,5.52,0,0,1-.77,1.826.641.641,0,0,0,.045.756l.687.829-.753.753-.829-.687a.641.641,0,0,0-.764-.04,5.331,5.331,0,0,1-1.818.759A.633.633,0,0,0,106.892,137.15Z" transform="translate(-44.155 -83.71)"/>
    <path id="Path_107" data-name="Path 107" d="M148.637,168.653a5,5,0,1,0-5,5A5,5,0,0,0,148.637,168.653Zm-5,3.715a3.715,3.715,0,1,1,3.715-3.715A3.715,3.715,0,0,1,143.641,172.368Z" transform="translate(-76.914 -120.633)"/>
  </g>
</svg>
