<svg xmlns="http://www.w3.org/2000/svg" viewBox="0 0 39.801 49.756">
    <defs xmlns="http://www.w3.org/2000/svg">
    <style>
      path{
        fill: #e94d65;
      }
    </style>
  </defs>
  <g id="clipboard" transform="translate(-0.023 0)">
    <path id="Path_108" data-name="Path 108" d="M5,49.756H34.849a4.98,4.98,0,0,0,4.975-4.975V9.955A4.98,4.98,0,0,0,34.849,4.98H29.227a2.474,2.474,0,0,0-1.841-.829H24.83a4.975,4.975,0,0,0-9.813,0H12.461a2.475,2.475,0,0,0-1.841.829H5A4.98,4.98,0,0,0,.023,9.955V44.781A4.98,4.98,0,0,0,5,49.756ZM34.849,37.318h-5.8a1.658,1.658,0,0,0-1.658,1.658v5.8H5.828A.829.829,0,0,1,5,43.952V10.784a.829.829,0,0,1,.829-.829H9.973a2.488,2.488,0,0,0,2.488,2.488H27.387a2.487,2.487,0,0,0,2.487-2.488H34.02a.829.829,0,0,1,.829.829Zm-1.172,1.658-4.632,4.632V38.977ZM12.461,5.809h3.317a.829.829,0,0,0,.829-.829,3.317,3.317,0,0,1,6.633,0,.829.829,0,0,0,.829.829h3.317a.829.829,0,0,1,.829.829V9.955a.829.829,0,0,1-.829.829H12.461a.829.829,0,0,1-.829-.829V6.638a.829.829,0,0,1,.829-.829ZM1.682,9.955A3.317,3.317,0,0,1,5,6.638H9.973V8.3H5.828A2.488,2.488,0,0,0,3.34,10.785V43.952a2.488,2.488,0,0,0,2.488,2.488h21.7a2.477,2.477,0,0,0,1-.212c.016-.006.028-.016.043-.022a2.491,2.491,0,0,0,.719-.5l6.491-6.491a2.483,2.483,0,0,0,.492-.715c.008-.017.019-.032.026-.049a2.473,2.473,0,0,0,.211-.995V10.784A2.488,2.488,0,0,0,34.018,8.3H29.874V6.638h4.975a3.317,3.317,0,0,1,3.317,3.317V44.781A3.317,3.317,0,0,1,34.849,48.1H5a3.317,3.317,0,0,1-3.317-3.317Zm0,0" transform="translate(0)"/>
    <path id="Path_109" data-name="Path 109" d="M154.114,77.827h4.895a.489.489,0,1,0,0-.979h-4.895a.489.489,0,0,0,0,.979Zm0,0" transform="translate(-136.638 -72.439)"/>
    <path id="Path_110" data-name="Path 110" d="M72.695,173.652a.49.49,0,0,0-.49.489v.49H69.268v-2.937h1.469a.489.489,0,0,0,0-.979H69.268a.979.979,0,0,0-.979.979v2.937a.979.979,0,0,0,.979.979h2.937a.979.979,0,0,0,.979-.979v-.49A.489.489,0,0,0,72.695,173.652Zm0,0" transform="translate(-60.917 -152.767)"/>
    <path id="Path_111" data-name="Path 111" d="M72.205,290.18H69.268a.979.979,0,0,0-.979.979V294.1a.979.979,0,0,0,.979.979h2.937a.979.979,0,0,0,.979-.979v-2.937A.979.979,0,0,0,72.205,290.18ZM69.268,294.1v-2.937h2.937V294.1Zm0,0" transform="translate(-60.918 -259.673)"/>
    <path id="Path_112" data-name="Path 112" d="M171.181,188.761h2.448a.489.489,0,0,0,0-.979h-2.448a.489.489,0,0,0,0,.979Zm0,0" transform="translate(-152.925 -169.277)"/>
    <path id="Path_113" data-name="Path 113" d="M252.383,187.781h-4.406a.489.489,0,1,0,0,.979h4.406a.489.489,0,0,0,0-.979Zm0,0" transform="translate(-220.49 -169.276)"/>
    <path id="Path_114" data-name="Path 114" d="M171.181,222.893h4.895a.489.489,0,1,0,0-.979h-4.895a.489.489,0,0,0,0,.979Zm0,0" transform="translate(-151.82 -200.045)"/>
    <path id="Path_115" data-name="Path 115" d="M292.6,221.914h-1.958a.489.489,0,1,0,0,.979H292.6a.489.489,0,0,0,0-.979Zm0,0" transform="translate(-260.291 -200.046)"/>
    <path id="Path_116" data-name="Path 116" d="M171.181,308.226h2.448a.49.49,0,0,0,0-.979h-2.448a.49.49,0,0,0,0,.979Zm0,0" transform="translate(-152.925 -276.969)"/>
    <path id="Path_117" data-name="Path 117" d="M252.383,307.246h-4.406a.489.489,0,1,0,0,.979h4.406a.489.489,0,0,0,0-.979Zm0,0" transform="translate(-220.49 -276.969)"/>
    <path id="Path_118" data-name="Path 118" d="M176.076,341.379h-4.895a.489.489,0,0,0,0,.979h4.895a.489.489,0,1,0,0-.979Zm0,0" transform="translate(-151.82 -307.738)"/>
    <path id="Path_119" data-name="Path 119" d="M292.6,341.379h-1.958a.489.489,0,1,0,0,.979H292.6a.489.489,0,0,0,0-.979Zm0,0" transform="translate(-260.291 -307.738)"/>
    <path id="Path_120" data-name="Path 120" d="M97.508,153.626,95.4,156.582l-.57-.57a.49.49,0,0,0-.692.692l.979.979a.489.489,0,0,0,.346.143h.04a.489.489,0,0,0,.358-.2L98.3,154.2a.49.49,0,1,0-.8-.569Zm0,0" transform="translate(-83.977 -137.418)"/>
  </g>
</svg>
