<svg xmlns="http://www.w3.org/2000/svg" viewBox="0 0 51 43.382">
    <defs xmlns="http://www.w3.org/2000/svg">
    <style>
      path{
        fill: #e94d65;
      }
    </style>
  </defs>
  <g id="content-writing" transform="translate(-4.75 -13.6)">
    <path id="Path_121" data-name="Path 121" d="M55,13.6H5.5a.754.754,0,0,0-.753.753V56.233a.754.754,0,0,0,.753.75H55a.754.754,0,0,0,.753-.753V14.351A.754.754,0,0,0,55,13.6ZM6.256,15.106H54.244v4.578H6.256Zm0,40.373V21.191H54.244V55.476Z"/>
    <path id="Path_122" data-name="Path 122" d="M80.868,19.393a.934.934,0,1,0,.934.934A.934.934,0,0,0,80.868,19.393Z" transform="translate(-42.335 -4.004)"/>
    <path id="Path_123" data-name="Path 123" d="M92.7,19.393a.934.934,0,1,0,.934.934.934.934,0,0,0-.934-.934Z" transform="translate(-48.998 -4.004)"/>
    <path id="Path_124" data-name="Path 124" d="M104.534,19.393a.934.934,0,1,0,.934.934.934.934,0,0,0-.934-.934Z" transform="translate(-53.919 -4.004)"/>
    <path id="Path_125" data-name="Path 125" d="M77.692,51.9,69.96,59.633a.542.542,0,0,0-.074.093c0,.008-.008.016-.013.024a.56.56,0,0,0-.041.093c0,.006-.006.011-.007.017l-.971,3.227a.541.541,0,0,0,.673.673l3.228-.97.017-.008a.533.533,0,0,0,.093-.041l.025-.013a.557.557,0,0,0,.093-.074l7.73-7.732a2.136,2.136,0,1,0-3.02-3.022ZM70.178,62.433l.421-1.4.978.978Zm9.77-8.277L72.6,61.506l-1.491-1.491,7.351-7.351a1.055,1.055,0,1,1,1.492,1.492Z" transform="translate(-29.889 -18.386)"/>
    <path id="Path_126" data-name="Path 126" d="M89.394,59.079l-4.013,4.013a.54.54,0,1,0,.764.764l4.012-4.013a.541.541,0,0,0-.763-.764Z" transform="translate(-44.263 -24.75)"/>
    <path id="Path_127" data-name="Path 127" d="M29.168,69.32H19.215a.541.541,0,1,0,0,1.081h9.954a.54.54,0,1,0,0-1.081Z" transform="translate(-9.623 -31.496)"/>
    <path id="Path_128" data-name="Path 128" d="M19.212,79.875h9.954a.541.541,0,1,0,0-1.081H19.212a.541.541,0,0,0,0,1.081Z" transform="translate(-9.621 -36.851)"/>
    <path id="Path_129" data-name="Path 129" d="M29.166,88.269H19.212a.541.541,0,0,0,0,1.081h9.955a.541.541,0,1,0,0-1.081Z" transform="translate(-9.621 -42.207)"/>
    <path id="Path_130" data-name="Path 130" d="M29.168,50.372H19.215a.541.541,0,0,0,0,1.081h9.954a.541.541,0,1,0,0-1.081Z" transform="translate(-9.623 -20.785)"/>
    <path id="Path_131" data-name="Path 131" d="M19.212,60.926h9.954a.541.541,0,1,0,0-1.081H19.212a.541.541,0,0,0,0,1.081Z" transform="translate(-9.621 -26.14)"/>
  </g>
</svg>
