<svg xmlns="http://www.w3.org/2000/svg" viewBox="0 0 51.188 51.188">
    <defs xmlns="http://www.w3.org/2000/svg">
    <style>
      path{
        fill: #e94d65;
      }
    </style>
  </defs>
  <g id="data-processing" transform="translate(-1 -1)">
    <path id="Path_132" data-name="Path 132" d="M37,48.779A5.779,5.779,0,1,0,42.779,43,5.787,5.787,0,0,0,37,48.779Zm9.907,0a4.128,4.128,0,1,1-4.128-4.128A4.133,4.133,0,0,1,46.907,48.779Z" transform="translate(-6.278 -7.324)"/>
    <path id="Path_133" data-name="Path 133" d="M41,49.477A2.477,2.477,0,1,0,43.477,47,2.48,2.48,0,0,0,41,49.477Zm3.3,0a.826.826,0,1,1-.826-.826A.826.826,0,0,1,44.3,49.477Z" transform="translate(-6.975 -8.021)"/>
    <path id="Path_134" data-name="Path 134" d="M0,0H1.651V1.651H0Z" transform="translate(35.954 25.151) rotate(-43.056)"/>
    <path id="Path_135" data-name="Path 135" d="M0,0H1.651V1.651H0Z" transform="matrix(0.732, -0.682, 0.682, 0.732, 38.374, 22.912)"/>
    <path id="Path_136" data-name="Path 136" d="M0,0H1.651V1.651H0Z" transform="translate(40.782 20.642) rotate(-43.056)"/>
    <path id="Path_137" data-name="Path 137" d="M52.188,17.046V10.907H50.537V1H32.374V4.3H22.466v6.6H20.815v6.138l2.27,2.118H15.262a6.6,6.6,0,1,0-8.485.192A7.438,7.438,0,0,0,1,26.594V34.85a4.133,4.133,0,0,0,4.128,4.128v9.907a3.289,3.289,0,0,0,5.779,2.161,3.289,3.289,0,0,0,5.779-2.161V25.769a.826.826,0,0,1,.826-.826H29.277L33.2,28.6v2.842l-.317,1.27-1.764-1.057L26.7,36.073l1.057,1.764-1.993.5v6.243l1.994.5-1.057,1.764,4.414,4.414L32.883,50.2l.5,1.993h6.243l.5-1.994,1.764,1.057L46.3,46.838l-1.057-1.764,1.993-.5V38.334l-1.994-.5L46.3,36.072l-4.414-4.414L40.12,32.715,39.8,31.446V28.6ZM34.025,2.651H48.886v8.256H40.63V4.3h-6.6Zm-9.907,3.3H38.979v4.954H24.117Zm26.42,6.6v3.3H22.466v-3.3ZM5.954,14.21a4.954,4.954,0,1,1,4.954,4.954A4.959,4.959,0,0,1,5.954,14.21Zm9.082,11.559V48.886a1.651,1.651,0,0,1-3.3,0V33.2H10.082V48.886a1.651,1.651,0,0,1-3.3,0V24.943H5.128V37.327A2.48,2.48,0,0,1,2.651,34.85V26.594a5.786,5.786,0,0,1,5.779-5.779H29.484a1.238,1.238,0,0,1,0,2.477H17.512A2.48,2.48,0,0,0,15.036,25.769Zm16.1-1.35a2.886,2.886,0,0,0-1.651-5.255H25.5l-1.769-1.651H49.268L38.153,27.886v2.836h-3.3V27.886Zm10.493,9.319,2.592,2.592-1.07,1.783.41,1.006,2.024.505v3.664l-1.609.4-.441.167-.384.944,1.07,1.783-2.592,2.592L39.845,48.1l-1.006.41-.505,2.024H34.67l-.4-1.609-.167-.441-.944-.384-1.783,1.07-2.592-2.592,1.07-1.783-.41-1.006-2.024-.505V39.623l1.609-.4.441-.167.384-.944-1.07-1.783,2.592-2.592,1.783,1.07,1.006-.41.505-2.024h3.664l.4,1.609.167.441.944.384Z"/>
    <path id="Path_138" data-name="Path 138" d="M31,9h1.651v1.651H31Z" transform="translate(-5.231 -1.395)"/>
    <path id="Path_139" data-name="Path 139" d="M35,9h8.256v1.651H35Z" transform="translate(-5.929 -1.395)"/>
    <path id="Path_140" data-name="Path 140" d="M51,5h4.954V6.651H51Z" transform="translate(-8.719 -0.698)"/>
    <path id="Path_141" data-name="Path 141" d="M51,9h4.954v1.651H51Z" transform="translate(-8.719 -1.395)"/>
  </g>
</svg>
