<svg xmlns="http://www.w3.org/2000/svg" viewBox="0 0 51 51">
  <defs xmlns="http://www.w3.org/2000/svg">
    <style>
      path{
        fill: #e94d65;
      }
    </style>
  </defs>
  <g id="head" transform="translate(-0.001 0)">
    <g id="Group_1107" data-name="Group 1107" transform="translate(0.001 0)">
      <g id="Group_1106" data-name="Group 1106" transform="translate(0 0)">
        <path id="Path_142" data-name="Path 142" d="M43.475,49.407H21.739V37.455H20.067v2.39H13.379c-6.591,0-6.688-7.644-6.688-7.968H9.2V30.284H2.51l-.036,0a.726.726,0,0,1-.786-.651L6.614,19.463a.759.759,0,0,0,.077-.334q0-.8.076-1.6C7.69,7.892,16.639.79,26.755,1.67L26.9.085a20.507,20.507,0,0,0-15.364,4.94A18.786,18.786,0,0,0,5.018,18.952L.079,29.153A.759.759,0,0,0,0,29.487q0,.068,0,.136A2.391,2.391,0,0,0,2.51,31.878H5.018c0,3.307,1.747,9.562,8.36,9.562h6.688V50.2a.817.817,0,0,0,.836.8H44.311a.817.817,0,0,0,.836-.8V28.69H43.475Z" transform="translate(-0.001 0)"/>
        <path id="Path_143" data-name="Path 143" d="M244.608,6.591a9.357,9.357,0,0,0-17.784,5.825l-2.7,3.762a.585.585,0,0,0,.475.927h5.675A9.352,9.352,0,0,0,244.608,6.591Zm-8.9,11.1a8.115,8.115,0,0,1-4.9-1.638.585.585,0,0,0-.351-.117h-4.726l2.216-3.082a.585.585,0,0,0,.075-.542,8.22,8.22,0,1,1,7.685,5.38Z" transform="translate(-194.076 -0.133)"/>
        <path id="Path_144" data-name="Path 144" d="M361.766,40.051a1.755,1.755,0,0,0-1.755,1.755v4.681a1.755,1.755,0,0,0,3.511,0V41.806A1.755,1.755,0,0,0,361.766,40.051Zm.585,6.436a.585.585,0,1,1-1.17,0V41.806a.585.585,0,1,1,1.17,0Z" transform="translate(-323.169 -37.122)"/>
        <path id="Path_145" data-name="Path 145" d="M361.766,168.051a1.755,1.755,0,1,0,1.755,1.755A1.755,1.755,0,0,0,361.766,168.051Zm0,2.34a.585.585,0,1,1,.585-.585A.585.585,0,0,1,361.766,170.391Z" transform="translate(-323.169 -150.853)"/>
      </g>
    </g>
  </g>
</svg>
