<svg xmlns="http://www.w3.org/2000/svg" viewBox="0 0 51 51.341">
	<defs xmlns="http://www.w3.org/2000/svg">
    <style>
      path{
        fill: #e94d65;
      }
    </style>
  </defs>
  <g id="risks" transform="translate(-1 -0.586)">
    <path id="Path_146" data-name="Path 146" d="M20.767,43.461l-1.11.368a7.5,7.5,0,0,0,.442,1.057l1.042-.531A6.461,6.461,0,0,1,20.767,43.461Z" transform="translate(-3.121 -7.193)"/>
    <path id="Path_147" data-name="Path 147" d="M32.976,33.458a6.434,6.434,0,0,1-10.587,7.309l-.949.683a7.6,7.6,0,0,0,12.511-8.639Z" transform="translate(-0.648 -2.054)"/>
    <path id="Path_148" data-name="Path 148" d="M49.532,15a2.585,2.585,0,0,0-2.468,2.682,2.828,2.828,0,0,0,.364,1.383L42.96,25a2.273,2.273,0,0,0-.831-.167,2.319,2.319,0,0,0-.354.038l-4.737-5.148-4.37,3.694a2.293,2.293,0,0,0-1.232-.372c-.064,0-.124.015-.188.021l-.01,0-.721-6.274H22.483l-.72,6.263q-.607.24-1.212.552l-4.589-3.879L10.282,25.9l3.569,4.988c-.022.052-.038.1-.06.156L5.926,27.62c0-.035.01-.069.01-.1a2.585,2.585,0,0,0-2.468-2.682,2.691,2.691,0,0,0,0,5.364,2.375,2.375,0,0,0,1.843-.917l7.031,3.057-4.762.647v8.731l5.763.783q.221.658.508,1.317L10.282,48.8l5.68,6.173L20.551,51.1a13.3,13.3,0,0,0,1.212.552l.72,6.263h8.033l.72-6.263q.607-.24,1.212-.552l4.589,3.879,5.68-6.173-3.569-4.988q.286-.656.508-1.317l5.763-.783V32.984L39.656,32.2q-.221-.658-.508-1.317l1.143-1.6a2.373,2.373,0,0,0,1.838.91A2.585,2.585,0,0,0,44.6,27.516a2.819,2.819,0,0,0-.364-1.383L48.7,20.2a2.255,2.255,0,0,0,.831.168A2.585,2.585,0,0,0,52,17.682,2.585,2.585,0,0,0,49.532,15ZM3.468,28.41a.9.9,0,0,1,0-1.788.9.9,0,0,1,0,1.788Zm36.8-2.642a2.711,2.711,0,0,0-.306.483l-6.11-1.022a2.793,2.793,0,0,0-.121-.449L36.9,22.1Zm-8.014-.04a.825.825,0,1,1-.823-.894A.861.861,0,0,1,32.258,25.728Zm-19.786.317L16.1,22.1l4.267,3.606.467-.264a11.694,11.694,0,0,1,1.931-.877l.5-.173.67-5.821h5.128l.608,5.282a2.833,2.833,0,0,0,.044,3.787l-.881,2.075A6.853,6.853,0,0,0,26.5,29.3a7.362,7.362,0,0,0-6.566,4.343l-1.667-.7c0-.024.007-.046.007-.071A2.585,2.585,0,0,0,15.806,30.2a2.325,2.325,0,0,0-.336.037Zm8.417,9.917,3.15,1.317c0,.024-.007.046-.007.071a2.476,2.476,0,1,0,4.935,0,2.786,2.786,0,0,0-.748-1.917l1.412-3.327a6.4,6.4,0,0,1,2.626,5.243A6.031,6.031,0,0,1,26.5,43.607a6.031,6.031,0,0,1-5.758-6.258,6.745,6.745,0,0,1,.147-1.387Zm5.611.493a.9.9,0,1,1-.823.894A.861.861,0,0,1,26.5,36.456Zm.223-1.764c-.075-.007-.146-.024-.223-.024a2.378,2.378,0,0,0-1.865.945L21.48,34.294a5.7,5.7,0,0,1,5.02-3.2,5.325,5.325,0,0,1,1.64.262ZM15.806,31.986a.9.9,0,1,1-.823.894A.861.861,0,0,1,15.806,31.986Zm21.645-.795a13.819,13.819,0,0,1,.807,2.1l.159.546,5.357.728v5.573l-5.356.727-.159.546a14.068,14.068,0,0,1-.807,2.1l-.243.509,3.318,4.637L36.9,52.595l-4.267-3.606-.467.264a11.693,11.693,0,0,1-1.931.877l-.5.173-.67,5.822H23.936l-.67-5.821-.5-.173a11.693,11.693,0,0,1-1.931-.877l-.467-.264L16.1,52.6l-3.627-3.942,3.318-4.637-.243-.509a13.819,13.819,0,0,1-.807-2.1l-.159-.546-5.357-.728V34.563l4.333-.588a2.468,2.468,0,0,0,2.247,1.587,2.378,2.378,0,0,0,1.865-.945l1.675.7A8.641,8.641,0,0,0,19.1,37.35c0,4.437,3.322,8.046,7.4,8.046s7.4-3.609,7.4-8.046a8.206,8.206,0,0,0-3.577-6.876l.887-2.089a2.052,2.052,0,0,0,.223.025A2.441,2.441,0,0,0,33.6,26.994l5.583.934-1.971,2.754Zm4.677-2.781a.9.9,0,1,1,.823-.894A.861.861,0,0,1,42.129,28.41Zm7.4-9.834a.9.9,0,1,1,.823-.894A.861.861,0,0,1,49.532,18.576Z" transform="translate(0 -5.985)"/>
    <path id="Path_149" data-name="Path 149" d="M16.766,6.848H14.185V1h-1.17V8.018h.927l-3.267,3.267L7.409,8.018h.927V3.339H7.167V6.848H4.586l6.09,6.09Z" transform="translate(-1.489 -0.172)"/>
    <path id="Path_150" data-name="Path 150" d="M9,1h1.17V2.17H9Z" transform="translate(-3.322 -0.172)"/>
    <path id="Path_151" data-name="Path 151" d="M41.167,11.355h1.17V5.507h-.927L44.676,2.24l3.267,3.267h-.927V9.015h1.17V6.676h2.581L44.676.586l-6.09,6.09h2.581Z" transform="translate(-0.863)"/>
    <path id="Path_152" data-name="Path 152" d="M53,17h1.17v1.17H53Z" transform="translate(-6.848 -2.783)"/>
  </g>
</svg>
